<?xml version="1.0" standalone="no"?>
<!DOCTYPE svg PUBLIC "-//W3C//DTD SVG 20010904//EN"
 "http://www.w3.org/TR/2001/REC-SVG-20010904/DTD/svg10.dtd">
<svg version="1.0" xmlns="http://www.w3.org/2000/svg"
 width="150.000000pt" height="150.000000pt" viewBox="0 0 150.000000 150.000000"
 preserveAspectRatio="xMidYMid meet">
<metadata>
Created by potrace 1.11, written by Peter Selinger 2001-2013
</metadata>
<g transform="translate(0.000000,150.000000) scale(0.100000,-0.100000)"
fill="#000000" stroke="none">
<path d="M1155 1006 c-17 -7 -44 -28 -59 -46 -16 -20 -30 -29 -34 -23 -15 22
-79 46 -122 46 -49 -1 -114 -32 -130 -64 -10 -17 -12 -17 -53 6 -89 51 -193
20 -242 -72 -1 -2 -22 17 -48 41 -35 34 -58 47 -102 57 -33 7 -59 9 -64 3 -5
-5 -2 -65 7 -141 18 -151 6 -139 127 -122 l76 10 43 -39 c72 -67 173 -66 237
2 l31 34 36 -24 c41 -28 117 -32 161 -9 28 14 29 14 33 -15 6 -43 -2 -50 -71
-60 -35 -5 -65 -11 -68 -13 -9 -9 76 -67 98 -67 45 0 99 21 114 44 12 18 14
39 9 89 l-7 65 44 -15 c111 -40 219 39 219 160 0 59 -19 98 -66 133 -42 33
-122 42 -169 20z m126 -95 c20 -20 29 -39 29 -61 0 -22 -9 -41 -29 -61 -40
-40 -82 -39 -123 1 -26 27 -30 36 -25 68 13 78 94 107 148 53z m-271 -36 c54
-54 14 -146 -65 -148 -97 -3 -118 141 -25 176 25 10 64 -3 90 -28z m-287 -25
c34 -27 43 -70 23 -109 -30 -57 -85 -67 -135 -25 -88 73 22 204 112 134z"/>
<path d="M153 877 c-90 -102 -55 -269 69 -331 81 -41 169 -30 242 28 29 24 16
27 -60 16 -100 -14 -120 -13 -149 13 -24 20 -28 34 -44 160 -10 75 -20 139
-23 142 -3 3 -19 -9 -35 -28z"/>
</g>
</svg>
